
<svg width="39" height="44" viewBox="0 0 39 44" version="1.1" xmlns="http://www.w3.org/2000/svg" xmlns:xlink="http://www.w3.org/1999/xlink">
<title>Group 4</title>
<desc>Created using Figma</desc>
<g id="Canvas" transform="translate(-5689 126)">
<g id="Group 4" opacity="0.272135">
<g id="Fill 1">
<use xlink:href="#path0_fill" transform="translate(5689 -118.3)" fill="#FFFFFF"/>
</g>
<g id="Fill 2">
<use xlink:href="#path1_fill" transform="translate(5689 -101.8)" fill="#FFFFFF"/>
</g>
<g id="Fill 4">
<use xlink:href="#path2_fill" transform="translate(5692.16 -106.2)" fill="#FFFFFF"/>
</g>
<g id="Fill 5">
<use xlink:href="#path3_fill" transform="translate(5695.32 -126)" fill="#FFFFFF"/>
</g>
</g>
</g>
<defs>
<path id="path0_fill" fill-rule="evenodd" d="M 23.14 29.3448C 22.9734 27.3253 22.4386 24.9466 21.5528 22.283C 21.0608 20.78 20.4387 19.1342 19.7046 17.3907C 18.9555 15.6148 18.1406 13.8958 17.2816 12.2796C 17.2766 12.27 17.2716 12.2609 17.2663 12.2514L 17.268 12.2504C 17.2276 12.1758 17.186 12.1051 17.1454 12.0314C 17.002 11.7676 16.8579 11.5103 16.713 11.2593C 16.6875 11.2152 16.6618 11.1718 16.636 11.1277C 16.5212 10.9303 16.4056 10.736 16.2899 10.5461C 15.5083 9.24746 14.7004 8.06381 13.873 7.00403C 13.856 6.98093 13.8385 6.95691 13.8215 6.93405L 13.8198 6.93521C 13.3417 6.32636 12.8581 5.75436 12.3686 5.23065C 6.34197 -1.42174 3.08089 -0.302235 1.67341 0.956299C -1.18444 3.51209 -0.32501 10.1554 3.81685 17.4878L 6.60773 15.5282C 2.86786 8.90874 2.89841 4.57397 3.73712 3.82398C 4.12006 3.482 6.09965 3.4848 10.0666 7.86296C 10.4941 8.32042 10.9168 8.8201 11.3355 9.35267C 12.0704 10.3439 12.8349 11.4176 13.5784 12.6386C 13.6763 12.8019 13.7742 12.9645 13.8713 13.1318C 13.8956 13.1733 13.9201 13.2144 13.9441 13.2563C 14.0766 13.4864 14.2074 13.7229 14.3382 13.9606C 14.3737 14.0259 14.4099 14.0884 14.4453 14.1549C 15.2497 15.6694 16.0152 17.2846 16.72 18.9549C 17.4126 20.5988 17.9962 22.1424 18.4581 23.5521C 19.2455 25.9217 19.7159 27.9834 19.8603 29.7274C 20.0078 31.1289 19.5328 32.265 18.678 32.5547C 17.5593 32.9326 14.9492 32.0117 12.255 26.1496L 9.32015 27.8262C 12.6289 35.0261 16.1284 36.3 18.1879 36.3C 18.8247 36.3 19.3244 36.178 19.6374 36.0719C 22.0697 35.2474 23.4757 32.5256 23.14 29.3448Z"/>
<path id="path1_fill" fill-rule="evenodd" d="M 3.39855 5.24798C 3.02498 4.33898 3.79745 3.41784 4.56551 2.78152C 4.2518 2.35525 3.94436 1.91066 3.6409 1.44264L 2.70562 0C 2.68929 0.0127818 2.67109 0.0251375 2.65518 0.0379192C -0.728087 2.72507 -0.0793099 5.48465 0.35558 6.5432C 1.46143 9.23504 4.93867 10.9949 8.82505 11C 9.39011 11.0008 9.96418 10.9644 10.5405 10.8879L 10.2009 8.23401C 9.9196 8.03249 9.64565 7.8299 9.37881 7.62539C 6.42583 7.79283 3.95671 6.60583 3.39855 5.24798Z"/>
<path id="path2_fill" fill-rule="evenodd" d="M 32.245 12.2333C 31.2373 16.2693 24.5727 16.6261 21.4049 15.9208C 18.7665 15.3157 16.3982 14.4893 14.159 13.3919C 12.9436 12.801 11.7575 12.1191 10.6429 11.371C 9.54261 10.6224 8.54238 9.84398 7.66297 9.05102C 6.6873 8.18093 5.81829 7.24007 4.99951 6.16065C 6.1593 5.55722 7.33169 5.08577 8.59394 4.7117L 8.59947 4.70966C 9.75173 4.36403 10.9434 4.09918 12.2388 3.90145C 13.5595 3.70281 14.9136 3.59792 16.2694 3.58859C 18.7532 3.56607 21.2358 3.83843 23.8628 4.42979C 26.2304 4.9761 30.2499 6.89809 31.7744 9.46013C 32.3263 10.3878 32.4805 11.2945 32.245 12.2333ZM 34.7493 7.58888C 32.562 3.91306 27.4976 1.59357 24.6179 0.929164C 21.7219 0.277049 18.977 -0.0321706 16.2401 0.00264219C 14.7302 0.0131088 13.2144 0.130972 11.7302 0.353956C 10.2736 0.576485 8.93152 0.875011 7.62701 1.26637C 5.69226 1.83999 3.94229 2.6086 2.17507 3.66004C 1.96241 3.78678 1.74952 3.91533 1.53598 4.05026L 0.0701492 4.97678L 0 5.02115L 0.00376194 5.02752L 0.994923 6.56702C 1.31624 7.06624 1.64176 7.54065 1.97436 7.99549C 3.01044 9.41326 4.1138 10.6324 5.37073 11.7535C 5.89806 12.2292 6.46656 12.6995 7.06781 13.1635C 7.35017 13.3815 7.64028 13.5976 7.93792 13.8124C 8.19661 13.9985 8.45817 14.1842 8.72771 14.3676C 9.98375 15.2108 11.3097 15.9731 12.6631 16.6311C 15.137 17.8437 17.7484 18.7565 20.6559 19.4232C 21.6456 19.6437 22.9408 19.8 24.3688 19.8C 25.7855 19.8 27.3329 19.646 28.8413 19.2475C 32.5204 18.2762 34.8655 16.1592 35.6232 13.1262C 36.0919 11.2527 35.7898 9.33749 34.7493 7.58888Z"/>
<path id="path3_fill" fill-rule="evenodd" d="M 8.05611 10.1378C 6.20597 13.0589 4.90318 16.0028 4.18373 18.8882C 3.79433 20.4593 3.57062 21.9487 3.5009 23.4385C 3.43273 24.8413 3.51039 26.1857 3.73807 27.5505C 4.04628 29.3482 4.61505 31.0809 5.43047 32.7088C 6.96756 32.6803 8.4839 32.4326 9.95149 31.969C 11.1387 31.5876 12.313 31.0691 13.434 30.4306C 14.7128 29.7059 15.8949 28.8317 17.0516 27.7556C 19.247 25.7082 21.1521 23.0389 22.8739 19.5968C 26.5938 12.1411 24.8639 6.68338 21.4989 4.58264C 16.8493 1.67836 11.2761 5.42421 8.05611 10.1378ZM 5.1305 36.3C 4.86399 36.3 4.59748 36.2948 4.32986 36.2836L 3.38096 36.2449L 2.89956 35.3997C 1.62104 33.1541 0.750905 30.7205 0.312967 28.1676C 0.0398349 26.5311 -0.0526064 24.9292 0.0281418 23.262C 0.109331 21.5309 0.36724 19.8072 0.815989 17.9963C 1.6334 14.7188 3.09569 11.4058 5.16338 8.14702L 5.19537 8.09852C 7.77137 4.31465 10.9177 1.72504 14.2939 0.608642C 17.4806 -0.444231 20.6783 -0.123633 23.2986 1.51237C 28.0462 4.47608 30.7116 11.7255 25.9644 21.241C 24.0468 25.0747 21.8935 28.0769 19.3808 30.4197C 18.0207 31.6848 16.6248 32.7163 15.1113 33.5742C 13.788 34.3281 12.3959 34.9422 10.9768 35.3983C 9.07591 35.9981 7.11479 36.3 5.1305 36.3Z"/>
</defs>
</svg>
